<?xml version="1.0" standalone="no"?>
<!DOCTYPE svg PUBLIC "-//W3C//DTD SVG 1.1//EN" "http://www.w3.org/Graphics/SVG/1.1/DTD/svg11.dtd" >
<svg xmlns="http://www.w3.org/2000/svg" xmlns:xlink="http://www.w3.org/1999/xlink" version="1.1">
<metadata>
Created by FontForge 20170731 at Sun Nov 12 13:18:46 2000
 By Aleksey,,,
(C)2000 Tepid Monkey Fonts-www.fontframe.com/tepidmonkey
</metadata>
<defs>
<font id="AccidentalPresidency" horiz-adv-x="392" >
  <font-face 
    font-family="Accidental Presidency"
    font-weight="400"
    font-stretch="normal"
    units-per-em="1000"
    panose-1="0 0 4 0 0 0 0 0 0 0"
    ascent="800"
    descent="-200"
    x-height="472"
    cap-height="650"
    bbox="-137 -221 814 932"
    underline-thickness="20"
    underline-position="-163"
    unicode-range="U+0020-F002"
  />
<missing-glyph horiz-adv-x="500" 
d="M63 0v800h375v-800h-375zM125 63h250v675h-250v-675z" />
    <glyph glyph-name=".notdef" horiz-adv-x="500" 
d="M63 0v800h375v-800h-375zM125 63h250v675h-250v-675z" />
    <glyph glyph-name=".null" horiz-adv-x="0" 
 />
    <glyph glyph-name="nonmarkingreturn" horiz-adv-x="192" 
 />
    <glyph glyph-name="space" unicode=" " horiz-adv-x="192" 
 />
    <glyph glyph-name="exclam" unicode="!" horiz-adv-x="173" 
d="M138 198h-104v452l104 -1v-451zM139 0h-104l-1 109h104z" />
    <glyph glyph-name="quotedbl" unicode="&#x22;" horiz-adv-x="318" 
d="M281 378h-94l-1 272l94 -1zM131 378h-94l-1 272l94 -1z" />
    <glyph glyph-name="numbersign" unicode="#" horiz-adv-x="708" 
d="M692 495l-1 -94h-155l-46 -148h140l-1 -94h-169l-49 -159h-94l49 159l-156 -1l-49 -158h-94l49 158h-106v94h135l46 148h-119v94h149l48 156l94 -1l-48 -155l156 1l48 155l94 -1l-48 -154h127zM442 401l-157 -1l-46 -148l156 1z" />
    <glyph glyph-name="dollar" unicode="$" horiz-adv-x="377" 
d="M353 449h-100q0 76 -31 95v-174q54 -10 92 -51.5t38 -94.5v-62q0 -56 -37 -98.5t-92 -50.5v-64h-55v63q-60 3 -101 46.5t-41 103.5v43h100q-1 -82 42 -100v177q-57 7 -99 49.5t-42 98.5v62q0 59 40.5 102.5t99.5 47.5v77l55 -1v-77q56 -7 93.5 -50t37.5 -99v-43zM167 378
v173q-40 -9 -40 -84q0 -72 40 -89zM252 187q0 60 -29 83v-163q29 15 29 80z" />
    <glyph glyph-name="percent" unicode="%" horiz-adv-x="577" 
d="M247 428q0 -51 -33.5 -77.5t-85.5 -26.5q-42 0 -72.5 30.5t-30.5 73.5v120q0 51 35 79q33 25 85 25q42 0 72 -30.5t30 -73.5v-120zM173 446v87q0 51 -38 51q-35 0 -35 -51v-87q0 -51 38 -51q35 0 35 51zM499 649l-346 -649h-84l347 650zM556 104q0 -51 -34 -77.5
t-86 -26.5q-42 0 -72 31t-30 73v121q0 50 35 78q32 26 84 26q42 0 72.5 -31t30.5 -73v-121zM481 122v87q0 51 -38 51q-35 0 -35 -51v-87q0 -51 38 -51q35 0 35 51z" />
    <glyph glyph-name="ampersand" unicode="&#x26;" horiz-adv-x="440" 
d="M421 369l-1 -79h-71q1 -148 1 -149q0 -62 -44 -106t-106 -44h-26q-62 0 -106 44t-44 106v82q0 29 20 59t47 47q-26 11 -46 43.5t-20 61.5v52q0 62 44 106t106 44h26q62 0 106 -44t44 -106v-53h-100q0 54 -7 75q-14 39 -58 39q-61 0 -61 -84q0 -55 16.5 -74t69.5 -21
q41 -1 105 0q87 1 105 1zM249 289q-86 0 -105.5 -18t-19.5 -105q0 -41 10 -60q14 -26 51 -26q41 0 55 31q9 21 9 67v111z" />
    <glyph glyph-name="quotesingle" unicode="'" horiz-adv-x="168" 
d="M131 378h-94l-1 272l94 -1z" />
    <glyph glyph-name="parenleft" unicode="(" horiz-adv-x="207" 
d="M190 -154q-62 0 -114 46t-52 108v512q0 62 49 106t111 44l1 -89q-61 2 -61 -84v-462q0 -85 65 -84z" />
    <glyph glyph-name="parenright" unicode=")" horiz-adv-x="228" 
d="M198 0q0 -62 -51.5 -108t-114.5 -46l1 97q65 -1 65 84v462q0 86 -61 84l1 89q62 0 111 -44t49 -106v-512z" />
    <glyph glyph-name="asterisk" unicode="*" horiz-adv-x="388" 
d="M361 571l-95 -80l93 -78l-59 -71l-61 51v-71h-92v70l-57 -48l-59 70l91 77l-93 78l60 70l58 -49v85h92v-86l63 52z" />
    <glyph glyph-name="plus" unicode="+" horiz-adv-x="431" 
d="M410 213h-151v-146h-92v146h-150v92h150v155h92v-155h151v-92z" />
    <glyph glyph-name="comma" unicode="," horiz-adv-x="213" 
d="M180 110l-80 -260h-74l40 261z" />
    <glyph glyph-name="hyphen" unicode="-" horiz-adv-x="212" 
d="M182 213h-153v92h153v-92z" />
    <glyph glyph-name="hyphen" unicode="&#x2010;" horiz-adv-x="212" 
d="M182 213h-153v92h153v-92z" />
    <glyph glyph-name="period" unicode="." horiz-adv-x="188" 
d="M147 0h-104v111l104 -1v-110z" />
    <glyph glyph-name="slash" unicode="/" horiz-adv-x="340" 
d="M325 649l-224 -717h-94l224 718z" />
    <glyph glyph-name="zero" unicode="0" horiz-adv-x="390" 
d="M356 140q0 -62 -44.5 -106t-105.5 -44h-26q-62 0 -106 44t-44 106v342q0 62 44 106t106 44h26q61 0 105.5 -44t44.5 -106v-342zM256 167v292q0 40 -8 57q-12 27 -47 27q-71 0 -71 -84v-292q0 -84 65 -84q61 0 61 84z" />
    <glyph glyph-name="one" unicode="1" horiz-adv-x="288" 
d="M251 0h-104v505l-102 -101v122l101 94l104 1z" />
    <glyph glyph-name="two" unicode="2" horiz-adv-x="362" 
d="M345 481q0 -51 -32 -103l-184 -295h204l1 -83h-315q-1 77 -1 71v12h1l205 327q25 39 25 71q0 24 -16 43t-40 19q-67 0 -67 -105q0 -12 1 -32t1 -27h-100v103q0 62 44 106t106 44h26q57 0 99 -47t42 -104z" />
    <glyph glyph-name="three" unicode="3" horiz-adv-x="386" 
d="M352 141q0 -62 -44 -106t-106 -44h-26q-61 0 -105.5 44t-44.5 106v53h100q0 -54 8 -75q14 -39 57 -39q38 0 52 26q10 19 10 60q0 78 -15 95.5t-90 17.5l-1 99q65 0 81 10q23 15 23 75q0 84 -61 84q-43 0 -57 -39q-8 -21 -8 -75h-100v53q0 62 44.5 106t105.5 44h26
q62 0 106 -44t44 -106v-52q0 -29 -19.5 -62t-45.5 -43q27 -17 46.5 -47t19.5 -59v-82z" />
    <glyph glyph-name="four" unicode="4" horiz-adv-x="398" 
d="M379 243l-1 -84l-43 1v-160h-95l1 160h-220l-1 83l226 379h110l-223 -379h108v107l94 -1v-106h44z" />
    <glyph glyph-name="five" unicode="5" horiz-adv-x="366" 
d="M347 140q0 -62 -44 -106t-106 -44h-26q-62 0 -106 44t-44 106v54h100v-24q0 -41 10 -60q13 -27 51 -27q47 0 60 46q6 21 6 85q0 89 -62 89h-161v316h317v-85h-226v-146h70q66 0 113.5 -41t47.5 -105v-102z" />
    <glyph glyph-name="six" unicode="6" horiz-adv-x="385" 
d="M354 450h-100q2 93 -65 93q-37 0 -51 -26q-10 -18 -10 -58l1 -75q18 18 57 18q71 0 118.5 -40t47.5 -110v-112q0 -62 -44 -106t-106 -44h-26q-61 0 -105.5 44t-44.5 106l2 342q1 62 45 106t105 44h26q62 0 106 -44t44 -106v-32zM252 167v62q0 84 -65 84q-63 0 -58 -62h-2
q-1 -10 -1 -22v-62q0 -84 65 -84q61 0 61 84z" />
    <glyph glyph-name="seven" unicode="7" horiz-adv-x="349" 
d="M330 537l-201 -537h-113l203 527h-194l-1 93h305z" />
    <glyph glyph-name="eight" unicode="8" horiz-adv-x="390" 
d="M356 438q0 -67 -62 -104q27 -14 43.5 -43t16.5 -59v-92q0 -62 -44 -106t-106 -44h-26q-62 0 -106 44t-44 106v92q0 27 19 58.5t43 45.5q-60 41 -60 154q0 62 44 106t106 44h26q62 0 106 -44t44 -106v-52zM256 467q0 84 -65 84q-37 0 -51 -26q-10 -19 -10 -60
q0 -83 52 -83h18q27 0 43 30q13 25 13 55zM254 167v42q0 80 -72 80q-22 0 -39 -30q-15 -26 -15 -50v-42q0 -84 65 -84q61 0 61 84z" />
    <glyph glyph-name="nine" unicode="9" horiz-adv-x="390" 
d="M356 488l-2 -342q-1 -62 -44.5 -106t-105.5 -44h-26q-62 0 -106 44t-44 106v32h100q-1 -93 65 -93q37 0 51 26q10 18 10 58v75q-19 -18 -58 -18q-71 0 -117 39q-49 41 -49 111v112q0 62 44 106t106 44h26q62 0 106 -44t44 -106zM256 466q0 79 -65 79q-61 0 -61 -84v-62
q0 -84 65 -84q54 0 58 62q3 51 3 89z" />
    <glyph glyph-name="colon" unicode=":" horiz-adv-x="173" 
d="M139 370h-104v111l104 -1v-110zM139 0h-104v111l104 -1v-110z" />
    <glyph glyph-name="semicolon" unicode=";" horiz-adv-x="188" 
d="M172 370h-104v111l104 -1v-110zM172 110l-80 -260h-74l40 261z" />
    <glyph glyph-name="less" unicode="&#x3c;" horiz-adv-x="385" 
d="M351 28l-320 155l1 107l319 151v-104l-220 -101l220 -104v-104z" />
    <glyph glyph-name="equal" unicode="=" horiz-adv-x="428" 
d="M412 303h-393v92h393v-92zM412 113h-393v92h393v-92z" />
    <glyph glyph-name="greater" unicode="&#x3e;" horiz-adv-x="361" 
d="M340 183l-320 -155v104l220 104l-220 101v104l319 -151z" />
    <glyph glyph-name="question" unicode="?" horiz-adv-x="371" 
d="M344 334q0 -50 -48.5 -92t-99.5 -42h-54v100h6q55 0 72 12q21 16 23 69q1 27 1 101q0 41 -10 59q-14 25 -51 25q-44 0 -57 -39q-8 -21 -8 -75h-100v53q0 62 44 106t106 44h26q62 0 106 -44t44 -106v-171zM239 0h-104v109h104v-109z" />
    <glyph glyph-name="at" unicode="@" horiz-adv-x="592" 
d="M575 281q0 -75 -40 -136q-45 -70 -118 -70q-33 0 -53 16q-23 18 -23 50q-18 -14 -50 -14q-38 0 -70 26q-35 27 -35 65q0 44 32 74.5t76 30.5q27 0 47 -6v9q0 49 -36 49q-28 0 -36 -36h-72q0 51 34 79q31 26 83 26q41 0 66 -29.5t25 -70.5v-205q0 -6 7.5 -14.5t12.5 -8.5
q45 0 76 62q26 52 26 103q0 96 -67 163t-163 67q-95 0 -162 -67.5t-67 -162.5q0 -98 68 -164t166 -66v-47q-118 0 -200 80t-82 197q0 115 81 196t196 81q116 0 197 -80.5t81 -196.5zM341 227q0 15 -12 26t-27 11q-16 0 -30.5 -12.5t-14.5 -27.5q0 -14 16 -24q13 -8 29 -8
q15 0 27 10t12 25z" />
    <glyph glyph-name="A" unicode="A" horiz-adv-x="379" 
d="M354 0h-104l-24 148h-76l-25 -148h-104l115 650l107 -1zM210 252l-21 158l-21 -158h42z" />
    <glyph glyph-name="B" unicode="B" horiz-adv-x="383" 
d="M355 140q0 -62 -35 -101t-96 -39h-196v651q176 1 177 1q62 0 106 -44t44 -106v-82q0 -26 -16.5 -59t-38.5 -43q23 -11 39 -40t16 -56v-82zM255 447v32q0 49 -12 65q-16 20 -66 20h-23h-25v-202l45 -1q49 -1 65 17.5t16 68.5zM255 167v39q0 74 -35 74h-91v-196
q62 -1 65 -1q37 0 51 25q10 18 10 59z" />
    <glyph glyph-name="C" unicode="C" horiz-adv-x="371" 
d="M350 140q0 -62 -44 -106t-106 -44h-26q-62 0 -106 44t-44 106v372q0 62 44 106t106 44h26q62 0 106 -44t44 -106v-103h-100q0 9 1 29t1 31q0 104 -67 104q-61 0 -61 -84v-322q0 -84 65 -84q61 0 61 84v87h100v-114z" />
    <glyph glyph-name="D" unicode="D" horiz-adv-x="384" 
d="M355 140q0 -62 -34.5 -101t-96.5 -39h-196v651q175 1 177 1q62 0 106 -44t44 -106v-362zM255 167v312q0 49 -12 65q-16 20 -65 20h-23.5h-25.5v-480q63 -1 65 -1q37 0 51 25q10 19 10 59z" />
    <glyph glyph-name="E" unicode="E" horiz-adv-x="343" 
d="M325 93l-1 -93h-303l-1 649l304 1l-1 -93h-197l-1 -176l199 1l-1 -93h-199l1 -195z" />
    <glyph glyph-name="F" unicode="F" horiz-adv-x="333" 
d="M323 382l-1 -93h-199v-289h-103l-1 649l304 1l-1 -93h-197l-1 -176z" />
    <glyph glyph-name="G" unicode="G" horiz-adv-x="372" 
d="M352 276l-1 -136q-1 -62 -44.5 -106t-105.5 -44h-26q-62 0 -106 44t-44 106v372q0 62 44 106t106 44h26q62 0 106 -44t44 -106v-103h-100q0 9 1 30v30q0 104 -66 104q-61 0 -61 -84v-322q0 -84 65 -84q38 0 52 27q9 19 9 62v9h-69v94z" />
    <glyph glyph-name="H" unicode="H" horiz-adv-x="375" 
d="M338 0h-106v280h-96l1 -280h-106l1 649h104v-277l96 1l1 276h104z" />
    <glyph glyph-name="I" unicode="I" horiz-adv-x="177" 
d="M140 0h-104l-1 650l104 -1z" />
    <glyph glyph-name="J" unicode="J" 
d="M356 140q0 -62 -44 -106t-106 -44h-26q-62 0 -106 44t-44 106v114h100v-87q0 -84 61 -84q65 0 65 84v477h100v-504z" />
    <glyph glyph-name="K" unicode="K" horiz-adv-x="377" 
d="M361 0h-114l-128 190v-190h-104v649h104v-188l127 188h114l-228 -323z" />
    <glyph glyph-name="L" unicode="L" horiz-adv-x="320" 
d="M319 93l-1 -93h-303l1 649h102l1 -555z" />
    <glyph glyph-name="M" unicode="M" horiz-adv-x="559" 
d="M521 0h-104v331l-90 -331h-104l-82 338v-338h-104v649h111l133 -461l126 461h114v-649z" />
    <glyph glyph-name="N" unicode="N" horiz-adv-x="377" 
d="M340 0h-106l-106 354l1 -354h-96l-3 649h104l110 -366l1 366h94z" />
    <glyph glyph-name="O" unicode="O" horiz-adv-x="384" 
d="M356 140q0 -62 -44.5 -106t-105.5 -44h-26q-62 0 -106 44t-44 106v372q0 62 44 106t106 44h26q61 0 105.5 -44t44.5 -106v-372zM256 167v322q0 40 -8 57q-12 27 -47 27q-71 0 -71 -84v-322q0 -84 65 -84q61 0 61 84z" />
    <glyph glyph-name="P" unicode="P" horiz-adv-x="378" 
d="M350 340q0 -62 -34.5 -101t-96.5 -39h-92v-200h-104v661q175 1 177 1q62 0 106 -44t44 -106v-172zM250 367v122q0 49 -12 65q-16 21 -66 20h-46l1 -290q60 -1 62 -1q37 0 51 25q10 19 10 59z" />
    <glyph glyph-name="Q" unicode="Q" horiz-adv-x="418" 
d="M398 53l-73 -74l-42 40q-39 -29 -114 -29q-62 0 -106 44t-44 106v372q0 62 44 106t106 44h26q62 0 106 -44t44 -106v-372q0 -17 -3 -33zM245 203v292q0 78 -55 78q-71 0 -71 -84v-322q0 -84 65 -84q18 0 30 5l-68 67l74 73z" />
    <glyph glyph-name="R" unicode="R" 
d="M359 0h-101q1 158 1 159q0 53 -34 72q-23 13 -80 12h-17l1 -243h-104v651l177 1q62 0 106 -44t44 -106v-112q0 -31 -18 -63q-18 -35 -45 -46q28 -13 49 -41.5t21 -57.5v-182zM252 417v62q0 49 -13 65q-15 21 -66 20h-45v-230q60 -1 63 -1q37 0 50 25q11 19 11 59z" />
    <glyph glyph-name="S" unicode="S" horiz-adv-x="373" 
d="M352 469h-100q0 47 -9 70q-15 34 -56 34q-37 0 -51 -26q-10 -19 -10 -60q0 -55 8 -80q14 -44 57 -44q62 0 111 -43.5t49 -105.5v-82q0 -62 -44 -106t-106 -44h-26q-62 0 -106 44t-44 106v43h100q-1 -104 65 -104q38 0 52 28q9 18 9 62q0 110 -63.5 110t-112.5 43.5
t-49 105.5v92q0 62 44 106t106 44h26q62 0 106 -44t44 -106v-43z" />
    <glyph glyph-name="T" unicode="T" horiz-adv-x="346" 
d="M328 567h-102l1 -567h-104l-1 567h-99l-1 83h305z" />
    <glyph glyph-name="U" unicode="U" 
d="M356 140q0 -62 -44 -106t-106 -44h-26q-61 0 -105.5 44t-44.5 106l-1 516h101v-489q0 -84 65 -84q61 0 61 84v489h99z" />
    <glyph glyph-name="V" unicode="V" horiz-adv-x="369" 
d="M352 649l-115 -650l-107 1l-111 649h104l61 -440l64 440h104z" />
    <glyph glyph-name="W" unicode="W" horiz-adv-x="599" 
d="M583 649l-115 -650l-107 1l-61 356l-63 -357l-107 1l-111 649h104l61 -440l64 440h106l61 -440l64 440h104z" />
    <glyph glyph-name="X" unicode="X" horiz-adv-x="365" 
d="M349 649l-112 -330l110 -320l-107 1l-55 163l-55 -163l-108 -1l110 320l-111 330h104l60 -176l60 176h104z" />
    <glyph glyph-name="Y" unicode="Y" horiz-adv-x="364" 
d="M354 649l-118 -455q-3 -10 -3 -51q0 -27 1.5 -79.5t1.5 -63.5h-104l-1 150v42l-110 457h104l61 -290l64 290h104z" />
    <glyph glyph-name="Z" unicode="Z" horiz-adv-x="349" 
d="M326 0h-305l-1 83l204 484h-203l-1 83h305l1 -83l-203 -484h202z" />
    <glyph glyph-name="bracketleft" unicode="[" horiz-adv-x="255" 
d="M239 -149l-219 -1l-1 800l220 -1l-1 -94l-124 -1v-610l124 -1z" />
    <glyph glyph-name="backslash" unicode="\" horiz-adv-x="307" 
d="M316 -68h-94l-223 717l93 1z" />
    <glyph glyph-name="bracketright" unicode="]" horiz-adv-x="291" 
d="M249 648l-1 -798l-219 1l1 92l124 1l1 610l-125 1l-1 94l220 1v-2z" />
    <glyph glyph-name="asciicircum" unicode="^" horiz-adv-x="452" 
d="M430 329h-104l-101 220l-104 -220h-104l155 320l107 -1z" />
    <glyph glyph-name="underscore" unicode="_" horiz-adv-x="566" 
d="M523 -80h-503v82h503v-82z" />
    <glyph glyph-name="grave" unicode="`" horiz-adv-x="108" 
d="M116 707h-84l-169 132l124 1z" />
    <glyph glyph-name="a" unicode="a" horiz-adv-x="395" 
d="M365 0h-100v34q-2 -44 -86 -44q-57 0 -105 38q-52 41 -52 97q0 36 20 72.5t49 58.5q36 26 93 26q50 0 81 -14v27q0 84 -65 84q-28 0 -42 -15q-10 -12 -20 -42h-99q0 62 44.5 106t105.5 44h26q62 0 106 -44t44 -106v-322zM265 139q0 26 -21.5 45.5t-48.5 19.5
q-26 0 -52 -21.5t-26 -47.5t27 -43q24 -16 51 -16t48.5 18.5t21.5 44.5z" />
    <glyph glyph-name="b" unicode="b" horiz-adv-x="378" 
d="M354 140q0 -69 -47.5 -109.5t-118.5 -40.5q-15 0 -36.5 12.5t-29.5 26.5v-29h-96l-1 648l104 1l-1 -205q22 28 76 28q62 0 106 -44t44 -106v-182zM254 167v132q0 84 -65 84q-59 0 -59 -57v-184q0 -25 19 -42t44 -17q61 0 61 84z" />
    <glyph glyph-name="c" unicode="c" horiz-adv-x="364" 
d="M348 140q0 -62 -44 -106t-106 -44h-26q-62 0 -106 44t-44 106v182q0 62 44 106t106 44h26q62 0 106 -44t44 -106v-53h-100q0 54 -8 75q-13 39 -57 39q-61 0 -61 -84v-132q0 -84 65 -84q44 0 56 37q5 18 5 74h100v-54z" />
    <glyph glyph-name="d" unicode="d" 
d="M359 650l-1 -650h-96v29q-20 -39 -82 -39t-106 44t-44 106v182q0 62 44 106t106 44h26q28 0 50 -28l-1 205zM255 326q0 57 -60 57q-65 0 -65 -84v-132q0 -84 61 -84q25 0 44 17t19 42z" />
    <glyph glyph-name="e" unicode="e" horiz-adv-x="375" 
d="M349 140q0 -62 -44 -106t-106 -44h-26q-62 0 -106 44t-44 106v182q0 62 44 106t106 44h26q62 0 106 -44t44 -106v-138h-226v-17q0 -48 21 -66.5t69 -18.5q27 0 37 58h99zM249 267v32q0 84 -65 84q-61 0 -61 -84v-31z" />
    <glyph glyph-name="f" unicode="f" horiz-adv-x="274" 
d="M247 369h-73v-369h-98l-1 368h-50l1 89h49v55q-1 62 55 108q53 44 117 44l-1 -98q-45 1 -61 -35q-11 -23 -11 -74h73v-88z" />
    <glyph glyph-name="g" unicode="g" horiz-adv-x="397" 
d="M364 -36q0 -62 -54.5 -107t-117.5 -45t-113.5 54t-50.5 117l104 2q-1 -82 67 -82q65 0 65 84q0 10 -4 35q-22 -28 -76 -28q-62 0 -106 44t-44 106v182q0 70 49 111q46 39 117 39q15 0 36.5 -12.5t29.5 -26.5v29l97 -1zM195 383q-61 0 -61 -84v-132q0 -84 65 -84
q62 0 62 91v26q-1 17 -1 24v35q0 67 -4 81q-12 43 -61 43z" />
    <glyph glyph-name="h" unicode="h" horiz-adv-x="380" 
d="M355 322l-1 -322h-98l-1 299q0 84 -65 84q-60 0 -60 -57l2 -326h-105l-1 650l104 -1l-1 -205q22 28 86 28q61 0 100.5 -44t39.5 -106z" />
    <glyph glyph-name="i" unicode="i" horiz-adv-x="169" 
d="M137 539h-104l-1 111l104 -1zM137 0h-104v480h104v-480z" />
    <glyph glyph-name="j" unicode="j" horiz-adv-x="235" 
d="M202 539h-104l-1 111l104 -1zM203 -39q0 -62 -54 -107t-118 -45l1 98q71 -1 71 77l1 489h98z" />
    <glyph glyph-name="k" unicode="k" horiz-adv-x="360" 
d="M347 0h-128l-95 140l1 -140h-105l-1 650l104 -1l1 -293l95 121h128l-188 -223z" />
    <glyph glyph-name="l" unicode="l" horiz-adv-x="173" 
d="M141 649l-1 -649h-104l1 650z" />
    <glyph glyph-name="m" unicode="m" horiz-adv-x="612" 
d="M583 332l-1 -332h-98l-1 309q0 84 -65 84q-27 0 -46 -19.5t-19 -46.5l-1 -327h-99l-1 327q0 28 -18 47t-46 19q-60 0 -59 -57l1 -336h-105l-1 480l104 -1l-1 -25q23 28 86 28q24 0 56 -19.5t42 -40.5q17 22 51 41t60 19q63 0 112 -44t49 -106z" />
    <glyph glyph-name="n" unicode="n" horiz-adv-x="385" 
d="M355 332l-1 -332h-98l-1 309q0 84 -65 84q-60 0 -59 -57l1 -336h-105l-1 480l104 -1l-1 -25q23 28 86 28q62 0 101 -44t39 -106z" />
    <glyph glyph-name="o" unicode="o" horiz-adv-x="373" 
d="M350 140q0 -62 -44 -106t-106 -44h-26q-62 0 -106 44t-44 106v182q0 62 44 106t106 44h26q62 0 106 -44t44 -106v-182zM250 167v132q0 84 -65 84q-61 0 -61 -84v-132q0 -84 65 -84q61 0 61 84z" />
    <glyph glyph-name="p" unicode="p" horiz-adv-x="386" 
d="M357 144q0 -62 -44 -106t-106 -44h-26q-28 0 -50 28l1 -205l-104 -1v649l97 1v-29q20 39 82 39t106 -44t44 -106v-182zM257 167v132q0 84 -61 84q-50 0 -62 -43q-4 -14 -4 -81l1 -42q0 -74 2 -86q11 -48 59 -48q65 0 65 84z" />
    <glyph glyph-name="q" unicode="q" horiz-adv-x="393" 
d="M359 -184l-104 1l1 205q-21 -28 -76 -28q-62 0 -106 44t-44 106v182q0 69 49 111q46 39 117 39q16 0 37 -12.5t29 -26.5v29l97 -1v-649zM191 383q-61 0 -61 -84v-132q0 -84 65 -84q63 0 63 91q0 9 -1 26t-1 24v35q0 67 -4 81q-11 43 -61 43z" />
    <glyph glyph-name="r" unicode="r" horiz-adv-x="307" 
d="M310 425l-82 -66q-15 34 -56 34q-59 0 -59 -57l1 -336h-105l-1 480l104 -1l-1 -25q23 28 86 28q72 0 113 -57z" />
    <glyph glyph-name="s" unicode="s" horiz-adv-x="365" 
d="M349 137q0 -62 -44 -106t-106 -44h-26q-56 0 -98.5 37t-50.5 93h105q14 -41 59 -41q24 0 42.5 16.5t18.5 39.5q0 54 -75 54q-64 0 -107 36q-46 38 -46 100t44 106t106 44h26q56 0 99 -37.5t50 -93.5h-105q-13 42 -59 42q-25 0 -43 -15.5t-18 -40.5q0 -54 75 -54
q64 0 108.5 -37t44.5 -99z" />
    <glyph glyph-name="t" unicode="t" horiz-adv-x="279" 
d="M246 -14q-172 0 -172 102v285h-49l-1 89h51l-2 88h100l1 -89h72v-88h-72v-262q0 -29 24 -35q9 -3 47 -2z" />
    <glyph glyph-name="u" unicode="u" 
d="M358 -1l-104 1l1 25q-23 -28 -86 -28q-62 0 -101 44t-39 106l1 332h98l1 -309q0 -84 65 -84q59 0 59 57l-1 336h105z" />
    <glyph glyph-name="v" unicode="v" horiz-adv-x="375" 
d="M355 479l-115 -480l-107 1l-111 479h104l61 -340l64 340h104z" />
    <glyph glyph-name="w" unicode="w" horiz-adv-x="604" 
d="M583 479l-115 -480l-107 1l-60 263l-64 -264l-107 1l-111 479h104l61 -320l64 320h104l63 -320l64 320h104z" />
    <glyph glyph-name="x" unicode="x" horiz-adv-x="381" 
d="M360 479l-103 -250l99 -229h-104l-61 170l-64 -170h-104l102 230l-98 249h104l61 -180l64 180h104z" />
    <glyph glyph-name="y" unicode="y" horiz-adv-x="375" 
d="M355 479l-158 -679l-87 1l41 199l-129 479h104l70 -324l55 324h104z" />
    <glyph glyph-name="z" unicode="z" horiz-adv-x="370" 
d="M337 0h-305l-1 83l194 314h-193l-1 83h305l1 -83l-193 -314h192z" />
    <glyph glyph-name="braceleft" unicode="{" horiz-adv-x="314" 
d="M296 -154q-62 0 -114 46t-52 108v165l-114 116l112 113h2v118q0 62 49 106t111 44l1 -89q-61 2 -61 -84v-95l-112 -113l112 -117v-137q0 -85 65 -84z" />
    <glyph glyph-name="bar" unicode="|" horiz-adv-x="166" 
d="M124 -160h-84l-1 810l84 -1z" />
    <glyph glyph-name="braceright" unicode="}" horiz-adv-x="313" 
d="M297 281l-114 -116v-165q0 -62 -52 -108t-114 -46l1 97q65 -1 65 84v137l112 117l-112 113v95q0 86 -61 84l1 89q62 0 111 -44t49 -106v-118h2z" />
    <glyph glyph-name="asciitilde" unicode="~" horiz-adv-x="567" 
d="M541 353q-31 -83 -54 -121q-44 -72 -100 -72q-44 0 -83 32q-10 8 -58 58q-30 32 -50 32q-32 0 -57 -45q-17 -36 -33 -72h-90q23 77 62 126q51 66 118 66q42 0 80 -32q4 -3 57 -58q30 -32 54 -32q29 0 71 118h83z" />
    <glyph glyph-name="exclamdown" unicode="&#xa1;" horiz-adv-x="171" 
d="M137 437h-104v109h104v-109zM138 -104l-104 1l-1 451h104z" />
    <glyph glyph-name="cent" unicode="&#xa2;" horiz-adv-x="370" 
d="M351 230q0 -58 -40 -101t-98 -48l1 -81h-55l-1 81q-56 6 -94.5 49t-38.5 100v182q0 57 38 100t95 49v97l55 1v-97q58 -5 98 -48.5t40 -101.5v-53h-100v16q0 78 -38 93v-292q28 9 35 46q3 14 3 62h100v-54zM158 180v288q-33 -13 -33 -79v-132q0 -59 33 -77z" />
    <glyph glyph-name="sterling" unicode="&#xa3;" horiz-adv-x="389" 
d="M383 432h-100q0 55 -7 76q-14 38 -58 38q-60 0 -60 -77v-104h131v-92h-130l1 -179l200 -1l-1 -93h-343v93h40l-1 180h-39v92h39l-1 98q0 67 44 119.5t109 52.5h26q62 0 106 -44t44 -106v-53z" />
    <glyph glyph-name="yen" unicode="&#xa5;" horiz-adv-x="359" 
d="M354 649q-34 -123 -67 -246q-52 -195 -51 -224h83v-52h-83v-48h83v-52h-83v-27h-104v27h-86l-1 52h87l-1 48h-85l-1 52h86q0 17 -34 159q-25 104 -76 311h104l61 -290l64 290h104z" />
    <glyph glyph-name="brokenbar" unicode="&#xa6;" horiz-adv-x="164" 
d="M123 649l-1 -359h-84l1 360zM124 -160h-84l-2 378h84z" />
    <glyph glyph-name="section" unicode="&#xa7;" horiz-adv-x="385" 
d="M356 75q0 -62 -44 -106t-106 -44h-26q-62 0 -106 44t-44 106v53h100q0 -54 7 -75q14 -39 58 -39q63 0 63 93q0 11 -1 31.5t-1 30.5q-19 -7 -37 -15q-12 -4 -41 -4q-55 0 -102.5 47.5t-47.5 102.5v232q0 62 44 106t106 44h26q62 0 106 -44t44 -106v-53h-100q0 54 -8 75
q-13 39 -57 39q-63 0 -63 -93q0 -11 1 -31.5t1 -30.5q18 7 37 15q12 4 41 4q56 0 103 -46.5t47 -103.5v-232zM253 308q0 24 -19 40t-43 16q-61 0 -61 -65q0 -24 19.5 -40t43.5 -16q60 0 60 65z" />
    <glyph glyph-name="dieresis" unicode="&#xa8;" horiz-adv-x="263" 
d="M282 710h-104v111l104 -1v-110zM52 710h-104v111l104 -1v-110z" />
    <glyph glyph-name="copyright" unicode="&#xa9;" horiz-adv-x="601" 
d="M576 309q0 -116 -81.5 -197.5t-196.5 -81.5t-197 81.5t-82 197.5q0 115 82 196.5t197 81.5t196.5 -81.5t81.5 -196.5zM527 307q0 95 -67.5 163t-162.5 68t-163 -68t-68 -163t68 -162.5t163 -67.5t162.5 67.5t67.5 162.5zM406 190q0 -47 -34 -73q-30 -23 -79 -23
q-39 0 -67.5 28.5t-28.5 67.5v238q0 47 34 73q30 23 79 23q40 0 68 -28.5t28 -67.5v-66h-64q0 6 1 19v19q0 67 -43 67q-39 0 -39 -54v-206q0 -53 42 -53q41 0 41 63q0 9 -1 25t-1 21h64v-73z" />
    <glyph glyph-name="ordfeminine" unicode="&#xaa;" horiz-adv-x="308" 
d="M275 317h-72v25q-2 -32 -62 -32q-42 0 -78 28.5t-36 69.5q0 47 34.5 80t82.5 33q36 0 59 -10v20q0 60 -47 60q-32 0 -45 -41h-72q0 45 32 77t77 32h19q44 0 76 -32t32 -77v-233zM203 418q0 19 -15.5 33t-35.5 14q-19 0 -37.5 -15.5t-18.5 -34.5t18.5 -31t37.5 -12
q20 0 35.5 13.5t15.5 32.5z" />
    <glyph glyph-name="guillemotleft" unicode="&#xab;" horiz-adv-x="463" 
d="M437 77q0 -9 -14.5 -19.5t-24.5 -10.5q-5 0 -10 2q-178 244 -178 247q0 9 10 18q15 14 15 15l153 212q5 2 10 2q10 0 24.5 -10.5t14.5 -19.5q0 -10 -10 -22q-13 -18 -15 -21l-89 -175l89 -175q2 -3 15 -21q10 -12 10 -22zM247 77q0 -9 -14.5 -19.5t-24.5 -10.5
q-5 0 -10 2q-178 244 -178 247q0 9 10 18q15 14 15 15l153 212q5 2 10 2q10 0 24.5 -10.5t14.5 -19.5q0 -10 -10 -22q-13 -18 -15 -21l-89 -175l89 -175q2 -3 15 -21q10 -12 10 -22z" />
    <glyph glyph-name="registered" unicode="&#xae;" horiz-adv-x="430" 
d="M406 466q0 -79 -56.5 -135.5t-135.5 -56.5t-135.5 56.5t-56.5 135.5t56.5 135.5t135.5 56.5t135.5 -56.5t56.5 -135.5zM363 465q0 62 -44 106t-106 44q-20 0 -38 -5h47q29 0 49.5 -20.5t20.5 -49.5v-48q0 -30 -23 -47q23 -16 27 -49q-1 7 -1 -57q68 45 68 126zM239 533
q0 29 -26 29h-18v-90h24q20 0 20 29v32zM245 318h-3v74q0 32 -40 32h-7v-106h-13q15 -3 31 -3t32 3zM140 334v262q-77 -43 -77 -131t77 -131z" />
    <glyph glyph-name="macron" unicode="&#xaf;" horiz-adv-x="210" 
d="M225 713h-203v72h203v-72z" />
    <glyph glyph-name="macron" unicode="&#x2c9;" horiz-adv-x="210" 
d="M225 713h-203v72h203v-72z" />
    <glyph glyph-name="degree" unicode="&#xb0;" horiz-adv-x="288" 
d="M255 428q0 -51 -34 -77.5t-86 -26.5q-42 0 -72 30.5t-30 73.5v120q0 51 35 79q32 25 84 25q43 0 73 -30.5t30 -73.5v-120zM180 446v87q0 51 -37 51q-35 0 -35 -51v-87q0 -51 37 -51q35 0 35 51z" />
    <glyph glyph-name="plusminus" unicode="&#xb1;" horiz-adv-x="426" 
d="M410 313h-151v-146h-92v146h-150v92h150v155h92v-155h151v-92zM409 0h-392v92h392v-92z" />
    <glyph glyph-name="twosuperior" unicode="&#xb2;" horiz-adv-x="243" 
d="M213 583q0 -29 -19 -59l-91 -146h103l1 -59h-183l-1 47v12h4l107 171q12 19 12 34q0 26 -22 26q-29 0 -29 -51q0 -7 1 -20v-17h-68v63q0 42 31 66q27 21 71 21q33 0 58 -27t25 -61z" />
    <glyph glyph-name="threesuperior" unicode="&#xb3;" horiz-adv-x="251" 
d="M217 402q0 -43 -29 -65.5t-72 -22.5q-36 0 -62 26t-26 62v35h68v-14q0 -47 28 -47q25 0 25 39q0 41 -7.5 47t-48.5 6v67h17q25 0 31.5 7t6.5 32q0 37 -25 37q-21 0 -26 -22q-2 -8 -1 -39h-68v36q0 42 30 66q27 21 71 21q36 0 61.5 -25.5t25.5 -61.5v-28q0 -34 -29 -57
q30 -25 30 -55v-44z" />
    <glyph glyph-name="acute" unicode="&#xb4;" horiz-adv-x="143" 
d="M153 839l-169 -132h-84l129 133z" />
    <glyph glyph-name="paragraph" unicode="&#xb6;" horiz-adv-x="528" 
d="M491 0h-94l1 574h-44v-574h-94v200h-92q-62 0 -96.5 39t-34.5 101v172q0 62 44 106t106 44l304 1v-663zM261 574h-46q-50 1 -66 -20q-12 -16 -12 -65v-122q0 -40 10 -59q14 -25 51 -25q3 0 62 1z" />
    <glyph glyph-name="middot" unicode="&#xb7;" horiz-adv-x="168" 
d="M137 210h-104v111l104 -1v-110z" />
    <glyph glyph-name="middot" unicode="&#x2219;" horiz-adv-x="168" 
d="M137 210h-104v111l104 -1v-110z" />
    <glyph glyph-name="cedilla" unicode="&#xb8;" horiz-adv-x="142" 
d="M152 -126q0 -40 -45 -60q-34 -15 -80 -15q-11 0 -21 1v45q19 -6 37 -6q54 0 54 32q0 35 -83 34v95h48v-55q31 -4 58 -22q32 -21 32 -49z" />
    <glyph glyph-name="onesuperior" unicode="&#xb9;" horiz-adv-x="196" 
d="M154 319h-70v259l-53 -53v85l57 54l65 1z" />
    <glyph glyph-name="ordmasculine" unicode="&#xba;" horiz-adv-x="288" 
d="M255 428q0 -51 -34 -77.5t-86 -26.5q-42 0 -72 30.5t-30 73.5v120q0 51 35 79q32 25 84 25q43 0 73 -30.5t30 -73.5v-120zM180 446v87q0 51 -37 51q-35 0 -35 -51v-87q0 -51 37 -51q35 0 35 51z" />
    <glyph glyph-name="guillemotright" unicode="&#xbb;" horiz-adv-x="464" 
d="M437 296q0 -3 -178 -247q-5 -2 -10 -2q-9 0 -24 10.5t-15 19.5q0 10 10 22q14 18 15 21l89 175l-89 175q-1 3 -15 21q-10 12 -10 22q0 9 15 19.5t24 10.5q5 0 10 -2l153 -212q1 -1 16 -15q9 -9 9 -18zM247 296q0 -3 -178 -247q-5 -2 -10 -2q-9 0 -24 10.5t-15 19.5
q0 10 10 22q14 18 15 21l89 175l-89 175q-1 3 -15 21q-10 12 -10 22q0 9 15 19.5t24 10.5q5 0 10 -2l153 -212q1 -1 16 -15q9 -9 9 -18z" />
    <glyph glyph-name="onequarter" unicode="&#xbc;" horiz-adv-x="517" 
d="M489 649l-346 -649h-84l346 650zM147 319h-69l-1 259l-53 -53v85l58 54l64 1zM502 145l-1 -60l-22 1l-1 -86h-65l1 86h-118l-1 53l124 208h76l-119 -202h38l-1 57l65 -1v-56h24z" />
    <glyph glyph-name="onehalf" unicode="&#xbd;" horiz-adv-x="538" 
d="M520 264q0 -29 -18 -59l-91 -146h103v-59h-182l-1 47v12h4l107 171q12 19 12 34q0 26 -22 26q-29 0 -29 -51v-20q1 -13 1 -17h-68v62q0 43 29 65.5t73 22.5q33 0 57.5 -27.5t24.5 -60.5zM478 649l-346 -649h-84l347 650zM147 319h-70v259l-53 -53v85l57 54l65 1z" />
    <glyph glyph-name="threequarters" unicode="&#xbe;" horiz-adv-x="521" 
d="M491 649l-346 -649h-84l346 650zM213 382q0 -43 -31 -66q-27 -22 -71 -22q-36 0 -61.5 26t-25.5 62v35h68v-14q-1 -47 27 -47q26 0 26 39q0 41 -7.5 47t-48.5 6l-1 67h18q25 0 31.5 7t6.5 32q0 37 -25 37q-21 0 -26 -22q-2 -8 -2 -39h-68v36q0 42 31 66q27 21 71 21
q35 0 61 -25.5t26 -61.5v-28q0 -34 -29 -57q30 -25 30 -55v-44zM504 145v-60l-23 1v-86h-66l1 86h-118l-1 53l125 208h75l-119 -202h38v57l65 -1v-56h23z" />
    <glyph glyph-name="questiondown" unicode="&#xbf;" horiz-adv-x="353" 
d="M222 437h-104v109h104v-109zM339 41q0 -62 -44 -106t-106 -44h-26q-62 0 -106 44t-44 106v171q0 50 48.5 92t99.5 42h54v-100h-6q-56 0 -72 -12q-21 -16 -23 -69q-1 -27 -1 -101q0 -41 10 -59q13 -25 51 -25q43 0 57 39q8 21 8 75h100v-53z" />
    <glyph glyph-name="Agrave" unicode="&#xc0;" horiz-adv-x="383" 
d="M358 0h-104l-24 148h-76l-25 -148h-104l115 650l107 -1zM214 252l-21 158l-21 -158h42zM271 707h-84l-169 132l124 1z" />
    <glyph glyph-name="Aacute" unicode="&#xc1;" horiz-adv-x="383" 
d="M358 0h-104l-24 148h-76l-25 -148h-104l115 650l107 -1zM214 252l-21 158l-21 -158h42zM376 839l-169 -132h-84l129 133z" />
    <glyph glyph-name="Acircumflex" unicode="&#xc2;" horiz-adv-x="383" 
d="M358 0h-104l-24 148h-76l-25 -148h-104l115 650l107 -1zM214 252l-21 158l-21 -158h42zM348 698h-71l-69 150l-70 -150h-71l105 218l73 -1z" />
    <glyph glyph-name="Atilde" unicode="&#xc3;" horiz-adv-x="383" 
d="M358 0h-104l-24 148h-76l-25 -148h-104l115 650l107 -1zM214 252l-21 158l-21 -158h42zM378 829q-45 -124 -99 -124q-37 0 -73.5 39t-49.5 39q-20 0 -37 -29q-10 -23 -21 -46h-58q38 123 116 123q35 0 71 -39t52 -39q19 0 46 76h53z" />
    <glyph glyph-name="Adieresis" unicode="&#xc4;" horiz-adv-x="374" 
d="M349 0h-104l-24 148h-76l-25 -148h-104l115 650l107 -1zM205 252l-21 158l-21 -158h42zM359 710h-104v111l104 -1v-110zM129 710h-104v111l104 -1v-110z" />
    <glyph glyph-name="Aring" unicode="&#xc5;" horiz-adv-x="383" 
d="M358 0h-104l-24 148h-76l-25 -148h-104l115 650l107 -1zM214 252l-21 158l-21 -158h42zM314 768q0 -51 -33.5 -77.5t-85.5 -26.5q-43 0 -73 30.5t-30 73.5v60q0 51 35 79q33 25 85 25q42 0 72 -30.5t30 -73.5v-60zM239 786v27q0 51 -37 51q-35 0 -35 -51v-27
q0 -51 37 -51q35 0 35 51z" />
    <glyph glyph-name="AE" unicode="&#xc6;" horiz-adv-x="571" 
d="M553 93l-1 -93h-303v148h-75l-50 -148h-104l223 650h309l-1 -93h-197l-1 -176l199 1l-1 -93h-199l1 -195zM248 252v132l-39 -132h39z" />
    <glyph glyph-name="Ccedilla" unicode="&#xc7;" horiz-adv-x="371" 
d="M350 140q0 -61 -42.5 -104.5t-103.5 -45.5v-45q32 -4 58 -22q32 -21 32 -49q0 -40 -45 -60q-33 -15 -80 -15q-11 0 -21 1v45q19 -6 37 -6q54 0 54 32q0 35 -83 34v86q-56 7 -94 49.5t-38 99.5v372q0 62 44 106t106 44h26q62 0 106 -44t44 -106v-103h-100q0 10 1 29.5
t1 30.5q0 104 -67 104q-61 0 -61 -84v-322q0 -84 65 -84q61 0 61 84v87h100v-114z" />
    <glyph glyph-name="Egrave" unicode="&#xc8;" horiz-adv-x="357" 
d="M331 93l-1 -93h-303l-1 649l304 1l-1 -93h-197l-1 -176l199 1l-1 -93h-199l1 -195zM275 707h-84l-169 132l124 1z" />
    <glyph glyph-name="Eacute" unicode="&#xc9;" horiz-adv-x="365" 
d="M330 93l-1 -93h-303l-1 649l304 1l-1 -93h-197l-1 -176l199 1l-1 -93h-199l1 -195zM379 839l-169 -132h-84l129 133z" />
    <glyph glyph-name="Ecircumflex" unicode="&#xca;" horiz-adv-x="364" 
d="M332 93l-1 -93h-303l-1 649l304 1l-1 -93h-197l-1 -176l199 1l-1 -93h-199l1 -195zM313 698h-71l-69 150l-70 -150h-71l105 218l73 -1z" />
    <glyph glyph-name="Edieresis" unicode="&#xcb;" horiz-adv-x="384" 
d="M333 93l-1 -93h-303l-1 649l304 1l-1 -93h-197l-1 -176l199 1l-1 -93h-199l1 -195zM354 710h-104v111l104 -1v-110zM124 710h-104v111l104 -1v-110z" />
    <glyph glyph-name="Igrave" unicode="&#xcc;" horiz-adv-x="190" 
d="M153 0h-104l-1 650l104 -1zM184 707h-84l-169 132l124 1z" />
    <glyph glyph-name="Iacute" unicode="&#xcd;" horiz-adv-x="163" 
d="M127 0h-104l-1 650l104 -1zM263 839l-169 -132h-84l129 133z" />
    <glyph glyph-name="Icircumflex" unicode="&#xce;" horiz-adv-x="221" 
d="M159 0h-104l-1 650l104 -1zM237 698h-71l-69 150l-70 -150h-71l105 218l73 -1z" />
    <glyph glyph-name="Idieresis" unicode="&#xcf;" horiz-adv-x="184" 
d="M149 0h-104l-1 650l104 -1zM247 710h-104v111l104 -1v-110zM17 710h-104v111l104 -1v-110z" />
    <glyph glyph-name="Eth" unicode="&#xd0;" horiz-adv-x="416" 
d="M387 140q0 -62 -34.5 -101t-96.5 -39h-196v277h-31v92h31v282q175 1 177 1q62 0 106 -44t44 -106v-362zM287 167v312q0 49 -12 65q-16 20 -65 20h-23.5h-25.5v-195h51v-92h-51v-193q63 -1 65 -1q37 0 51 25q10 19 10 59z" />
    <glyph glyph-name="Ntilde" unicode="&#xd1;" horiz-adv-x="376" 
d="M339 0h-106l-106 354l1 -354h-96l-3 649h104l110 -366l1 366h94zM372 829q-45 -124 -99 -124q-37 0 -73.5 39t-49.5 39q-20 0 -37 -29q-10 -23 -21 -46h-58q38 123 116 123q35 0 71 -39t52 -39q19 0 46 76h53z" />
    <glyph glyph-name="Ograve" unicode="&#xd2;" horiz-adv-x="381" 
d="M353 140q0 -62 -44.5 -106t-105.5 -44h-26q-62 0 -106 44t-44 106v372q0 62 44 106t106 44h26q61 0 105.5 -44t44.5 -106v-372zM253 167v322q0 40 -8 57q-12 27 -47 27q-71 0 -71 -84v-322q0 -84 65 -84q61 0 61 84zM262 707h-84l-169 132l124 1z" />
    <glyph glyph-name="Oacute" unicode="&#xd3;" horiz-adv-x="381" 
d="M353 140q0 -62 -44.5 -106t-105.5 -44h-26q-62 0 -106 44t-44 106v372q0 62 44 106t106 44h26q61 0 105.5 -44t44.5 -106v-372zM253 167v322q0 40 -8 57q-12 27 -47 27q-71 0 -71 -84v-322q0 -84 65 -84q61 0 61 84zM367 839l-169 -132h-84l129 133z" />
    <glyph glyph-name="Ocircumflex" unicode="&#xd4;" horiz-adv-x="381" 
d="M353 140q0 -62 -44.5 -106t-105.5 -44h-26q-62 0 -106 44t-44 106v372q0 62 44 106t106 44h26q61 0 105.5 -44t44.5 -106v-372zM253 167v322q0 40 -8 57q-12 27 -47 27q-71 0 -71 -84v-322q0 -84 65 -84q61 0 61 84zM339 698h-71l-69 150l-70 -150h-71l105 218l73 -1z
" />
    <glyph glyph-name="Otilde" unicode="&#xd5;" horiz-adv-x="384" 
d="M356 140q0 -62 -44.5 -106t-105.5 -44h-26q-62 0 -106 44t-44 106v372q0 62 44 106t106 44h26q61 0 105.5 -44t44.5 -106v-372zM256 167v322q0 40 -8 57q-12 27 -47 27q-71 0 -71 -84v-322q0 -84 65 -84q61 0 61 84zM372 829q-45 -124 -99 -124q-37 0 -73.5 39t-49.5 39
q-20 0 -37 -29q-10 -23 -21 -46h-58q38 123 116 123q35 0 71 -39t52 -39q19 0 46 76h53z" />
    <glyph glyph-name="Odieresis" unicode="&#xd6;" horiz-adv-x="376" 
d="M348 140q0 -62 -44.5 -106t-105.5 -44h-26q-62 0 -106 44t-44 106v372q0 62 44 106t106 44h26q61 0 105.5 -44t44.5 -106v-372zM248 167v322q0 40 -8 57q-12 27 -47 27q-71 0 -71 -84v-322q0 -84 65 -84q61 0 61 84zM354 710h-104v111l104 -1v-110zM124 710h-104v111
l104 -1v-110z" />
    <glyph glyph-name="multiply" unicode="&#xd7;" horiz-adv-x="403" 
d="M382 59l-37 -37l-145 146l-145 -145l-37 37l145 145l-145 144l37 37l144 -143l145 145l37 -37l-144 -147z" />
    <glyph glyph-name="Oslash" unicode="&#xd8;" horiz-adv-x="382" 
d="M361 715l-37 -117q28 -38 28 -86v-372q0 -62 -44 -106t-106 -44h-26q-21 0 -40 5l-20 -63h-94l36 115q-32 41 -32 93v372q0 62 44 106t106 44h26q24 0 46 -7l19 61zM221 569q-10 4 -24 4q-71 0 -71 -84v-225zM252 167v200l-87 -279q11 -5 26 -5q61 0 61 84z" />
    <glyph glyph-name="Ugrave" unicode="&#xd9;" 
d="M356 140q0 -62 -44 -106t-106 -44h-26q-61 0 -105.5 44t-44.5 106l-1 516h101v-489q0 -84 65 -84q61 0 61 84v489h99zM267 707h-84l-169 132l124 1z" />
    <glyph glyph-name="Uacute" unicode="&#xda;" 
d="M356 140q0 -62 -44 -106t-106 -44h-26q-61 0 -105.5 44t-44.5 106l-1 516h101v-489q0 -84 65 -84q61 0 61 84v489h99zM372 839l-169 -132h-84l129 133z" />
    <glyph glyph-name="Ucircumflex" unicode="&#xdb;" 
d="M356 140q0 -62 -44 -106t-106 -44h-26q-61 0 -105.5 44t-44.5 106l-1 516h101v-489q0 -84 65 -84q61 0 61 84v489h99zM344 698h-71l-69 150l-70 -150h-71l105 218l73 -1z" />
    <glyph glyph-name="Udieresis" unicode="&#xdc;" horiz-adv-x="386" 
d="M350 140q0 -62 -44 -106t-106 -44h-26q-61 0 -105.5 44t-44.5 106l-1 516h101v-489q0 -84 65 -84q61 0 61 84v489h99zM358 710h-104v111l104 -1v-110zM128 710h-104v111l104 -1v-110z" />
    <glyph glyph-name="Yacute" unicode="&#xdd;" horiz-adv-x="376" 
d="M349 649l-118 -455q-3 -10 -3 -51q0 -27 1.5 -79.5t1.5 -63.5h-104l-1 150v42l-110 457h104l61 -290l64 290h104zM366 839l-169 -132h-84l129 133z" />
    <glyph glyph-name="Thorn" unicode="&#xde;" horiz-adv-x="369" 
d="M353 240q0 -62 -35 -101t-96 -39h-92v-100h-104v661h104v-99h73q62 0 106 -44t44 -106v-172zM253 267v122q0 49 -13 65q-15 21 -66 20h-44v-290q58 -1 62 -1q37 0 51 25q10 19 10 59z" />
    <glyph glyph-name="germandbls" unicode="&#xdf;" horiz-adv-x="383" 
d="M355 140q0 -62 -34.5 -101t-96.5 -39h-29l-1 83q62 0 62 85q0 108 -46 109v87q45 9 45 84q0 70 -6 85q-14 31 -72 31h-23h-25v-704h-101v791l177 1q62 0 106 -44t44 -106v-82q0 -26 -16 -58q-17 -35 -39 -44q23 -10 39 -39.5t16 -56.5v-82z" />
    <glyph glyph-name="agrave" unicode="&#xe0;" horiz-adv-x="384" 
d="M358 0h-100v34q-2 -44 -86 -44q-57 0 -105 38q-52 41 -52 97q0 36 20 72.5t49 58.5q36 26 93 26q50 0 81 -14v27q0 84 -65 84q-28 0 -42 -15q-10 -12 -20 -42h-99q0 62 44.5 106t105.5 44h26q62 0 106 -44t44 -106v-322zM258 139q0 26 -21.5 45.5t-48.5 19.5
q-26 0 -52 -21.5t-26 -47.5t27 -43q24 -16 51 -16t48.5 18.5t21.5 44.5zM294 543h-84l-169 132l124 1z" />
    <glyph glyph-name="aacute" unicode="&#xe1;" horiz-adv-x="382" 
d="M360 0h-100v34q-2 -44 -86 -44q-57 0 -105 38q-52 41 -52 97q0 36 20 72.5t49 58.5q36 26 93 26q50 0 81 -14v27q0 84 -65 84q-28 0 -42 -15q-10 -12 -20 -42h-99q0 62 44.5 106t105.5 44h26q62 0 106 -44t44 -106v-322zM260 139q0 26 -21.5 45.5t-48.5 19.5
q-26 0 -52 -21.5t-26 -47.5t27 -43q24 -16 51 -16t48.5 18.5t21.5 44.5zM361 675l-169 -132h-84l129 133z" />
    <glyph glyph-name="acircumflex" unicode="&#xe2;" horiz-adv-x="381" 
d="M358 0h-100v34q-2 -44 -86 -44q-57 0 -105 38q-52 41 -52 97q0 36 20 72.5t49 58.5q36 26 93 26q50 0 81 -14v27q0 84 -65 84q-28 0 -42 -15q-10 -12 -20 -42h-99q0 62 44.5 106t105.5 44h26q62 0 106 -44t44 -106v-322zM258 139q0 26 -21.5 45.5t-48.5 19.5
q-26 0 -52 -21.5t-26 -47.5t27 -43q24 -16 51 -16t48.5 18.5t21.5 44.5zM341 534h-71l-69 150l-70 -150h-71l105 218l73 -1z" />
    <glyph glyph-name="atilde" unicode="&#xe3;" horiz-adv-x="388" 
d="M356 0h-100v34q-2 -44 -86 -44q-57 0 -105 38q-52 41 -52 97q0 36 20 72.5t49 58.5q36 26 93 26q50 0 81 -14v27q0 84 -65 84q-28 0 -42 -15q-10 -12 -20 -42h-99q0 62 44.5 106t105.5 44h26q62 0 106 -44t44 -106v-322zM256 139q0 26 -21.5 45.5t-48.5 19.5
q-26 0 -52 -21.5t-26 -47.5t27 -43q24 -16 51 -16t48.5 18.5t21.5 44.5zM369 665q-45 -124 -99 -124q-37 0 -73.5 39t-49.5 39q-20 0 -37 -29q-10 -23 -21 -46h-58q38 123 116 123q35 0 71 -39t52 -39q19 0 46 76h53z" />
    <glyph glyph-name="adieresis" unicode="&#xe4;" horiz-adv-x="381" 
d="M350 0h-100v34q-2 -44 -86 -44q-57 0 -105 38q-52 41 -52 97q0 36 20 72.5t49 58.5q36 26 93 26q50 0 81 -14v27q0 84 -65 84q-28 0 -42 -15q-10 -12 -20 -42h-99q0 62 44.5 106t105.5 44h26q62 0 106 -44t44 -106v-322zM250 139q0 26 -21.5 45.5t-48.5 19.5
q-26 0 -52 -21.5t-26 -47.5t27 -43q24 -16 51 -16t48.5 18.5t21.5 44.5zM353 546h-104v111l104 -1v-110zM123 546h-104v111l104 -1v-110z" />
    <glyph glyph-name="aring" unicode="&#xe5;" horiz-adv-x="395" 
d="M364 0h-100v34q-2 -44 -86 -44q-57 0 -105 38q-52 41 -52 97q0 36 20 72.5t49 58.5q36 26 93 26q50 0 81 -14v27q0 84 -65 84q-28 0 -42 -15q-10 -12 -20 -42h-99q0 62 44.5 106t105.5 44h26q62 0 106 -44t44 -106v-322zM264 139q0 26 -21.5 45.5t-48.5 19.5
q-26 0 -52 -21.5t-26 -47.5t27 -43q24 -16 51 -16t48.5 18.5t21.5 44.5zM305 566q0 -51 -33.5 -77.5t-85.5 -26.5q-43 0 -73 30.5t-30 73.5v60q0 51 35 79q33 25 85 25q42 0 72 -30.5t30 -73.5v-60zM230 584v27q0 51 -37 51q-35 0 -35 -51v-27q0 -51 37 -51q35 0 35 51z" />
    <glyph glyph-name="ae" unicode="&#xe6;" horiz-adv-x="618" 
d="M589 140q0 -62 -44.5 -106t-105.5 -44h-26q-28 0 -54 10h-94v34q-2 -44 -86 -44q-58 0 -106 38q-52 41 -52 97q0 37 21.5 75.5t54.5 60t86 21.5q48 0 80 -13v52q0 24 -19.5 41t-43.5 17q-29 0 -43 -15q-10 -12 -19 -42h-99q0 62 44 106t106 44h26q24 0 55.5 -18t43.5 -39
q9 20 42 38.5t57 18.5h26q61 0 105.5 -44t44.5 -106v-138h-224v-45q0 -57 88 -57q25 0 37 58h99zM489 267v32q0 84 -65 84q-26 0 -43 -14t-17 -39l1 -62zM263 135v19q-2 19 -25 34.5t-43 15.5q-27 0 -52.5 -21.5t-25.5 -47.5t27 -43q23 -16 51 -16q25 0 46.5 17.5t21.5 41.5
z" />
    <glyph glyph-name="ccedilla" unicode="&#xe7;" horiz-adv-x="378" 
d="M351 140q0 -61 -42.5 -104.5t-103.5 -45.5v-45q32 -4 58 -22q32 -21 32 -49q0 -40 -45 -60q-33 -15 -80 -15q-11 0 -21 1v45q19 -6 37 -6q54 0 54 32q0 35 -83 34v86q-56 7 -94 49.5t-38 99.5v182q0 62 44 106t106 44h26q62 0 106 -44t44 -106v-53h-100q0 54 -7 75
q-14 39 -58 39q-61 0 -61 -84v-132q0 -84 65 -84q44 0 56 37q6 18 5 74h100v-54z" />
    <glyph glyph-name="egrave" unicode="&#xe8;" horiz-adv-x="360" 
d="M338 140q0 -62 -44 -106t-106 -44h-26q-62 0 -106 44t-44 106v182q0 62 44 106t106 44h26q62 0 106 -44t44 -106v-138h-226v-17q0 -48 21 -66.5t69 -18.5q27 0 37 58h99zM238 267v32q0 84 -65 84q-61 0 -61 -84v-31zM285 543h-84l-169 132l124 1z" />
    <glyph glyph-name="eacute" unicode="&#xe9;" horiz-adv-x="362" 
d="M338 140q0 -62 -44 -106t-106 -44h-26q-62 0 -106 44t-44 106v182q0 62 44 106t106 44h26q62 0 106 -44t44 -106v-138h-226v-17q0 -48 21 -66.5t69 -18.5q27 0 37 58h99zM238 267v32q0 84 -65 84q-61 0 -61 -84v-31zM360 675l-169 -132h-84l129 133z" />
    <glyph glyph-name="ecircumflex" unicode="&#xea;" horiz-adv-x="363" 
d="M339 140q0 -62 -44 -106t-106 -44h-26q-62 0 -106 44t-44 106v182q0 62 44 106t106 44h26q62 0 106 -44t44 -106v-138h-226v-17q0 -48 21 -66.5t69 -18.5q27 0 37 58h99zM239 267v32q0 84 -65 84q-61 0 -61 -84v-31zM343 534h-71l-69 150l-70 -150h-71l105 218l73 -1z
" />
    <glyph glyph-name="edieresis" unicode="&#xeb;" horiz-adv-x="375" 
d="M349 140q0 -62 -44 -106t-106 -44h-26q-62 0 -106 44t-44 106v182q0 62 44 106t106 44h26q62 0 106 -44t44 -106v-138h-226v-17q0 -48 21 -66.5t69 -18.5q27 0 37 58h99zM249 267v32q0 84 -65 84q-61 0 -61 -84v-31zM363 546h-104v111l104 -1v-110zM133 546h-104v111
l104 -1v-110z" />
    <glyph glyph-name="igrave" unicode="&#xec;" horiz-adv-x="169" 
d="M131 0h-104l-1 480h104zM163 543h-84l-169 132l124 1z" />
    <glyph glyph-name="iacute" unicode="&#xed;" horiz-adv-x="172" 
d="M139 0h-104l-1 480h104zM246 675l-169 -132h-84l129 133z" />
    <glyph glyph-name="icircumflex" unicode="&#xee;" horiz-adv-x="181" 
d="M142 0h-104l-1 480h104zM231 534h-71l-69 150l-70 -150h-71l105 218l73 -1z" />
    <glyph glyph-name="idieresis" unicode="&#xef;" horiz-adv-x="189" 
d="M144 0h-104l-1 480h104zM253 546h-104v111l104 -1v-110zM23 546h-104v111l104 -1v-110z" />
    <glyph glyph-name="eth" unicode="&#xf0;" horiz-adv-x="421" 
d="M397 465l-53 -10l2 -315q0 -62 -44 -106t-106 -44h-26q-62 0 -106 44t-44 106v112q0 70 49 111q46 39 117 39q39 0 58 -18v52l-61 -11l-14 91l58 11q-15 17 -44 16l-15 89h26q43 0 80 -23.5t55 -62.5l53 10zM246 167v62q0 12 -1 22h-2v7q2 55 -58 55q-65 0 -65 -84v-62
q0 -84 61 -84q65 0 65 84z" />
    <glyph glyph-name="ntilde" unicode="&#xf1;" horiz-adv-x="389" 
d="M347 332l-1 -332h-98l-1 309q0 84 -65 84q-60 0 -59 -57l1 -336h-105l-1 480l104 -1l-1 -25q23 28 86 28q62 0 101 -44t39 -106zM366 665q-45 -124 -99 -124q-37 0 -73.5 39t-49.5 39q-20 0 -37 -29q-10 -23 -21 -46h-58q38 123 116 123q35 0 71 -39t52 -39q19 0 46 76
h53z" />
    <glyph glyph-name="ograve" unicode="&#xf2;" horiz-adv-x="368" 
d="M343 140q0 -62 -44 -106t-106 -44h-26q-62 0 -106 44t-44 106v182q0 62 44 106t106 44h26q62 0 106 -44t44 -106v-182zM243 167v132q0 84 -65 84q-61 0 -61 -84v-132q0 -84 65 -84q61 0 61 84zM280 543h-84l-169 132l124 1z" />
    <glyph glyph-name="oacute" unicode="&#xf3;" horiz-adv-x="369" 
d="M342 140q0 -62 -44 -106t-106 -44h-26q-62 0 -106 44t-44 106v182q0 62 44 106t106 44h26q62 0 106 -44t44 -106v-182zM242 167v132q0 84 -65 84q-61 0 -61 -84v-132q0 -84 65 -84q61 0 61 84zM364 675l-169 -132h-84l129 133z" />
    <glyph glyph-name="ocircumflex" unicode="&#xf4;" horiz-adv-x="366" 
d="M343 140q0 -62 -44 -106t-106 -44h-26q-62 0 -106 44t-44 106v182q0 62 44 106t106 44h26q62 0 106 -44t44 -106v-182zM243 167v132q0 84 -65 84q-61 0 -61 -84v-132q0 -84 65 -84q61 0 61 84zM337 534h-71l-69 150l-70 -150h-71l105 218l73 -1z" />
    <glyph glyph-name="otilde" unicode="&#xf5;" horiz-adv-x="384" 
d="M344 140q0 -62 -44 -106t-106 -44h-26q-62 0 -106 44t-44 106v182q0 62 44 106t106 44h26q62 0 106 -44t44 -106v-182zM244 167v132q0 84 -65 84q-61 0 -61 -84v-132q0 -84 65 -84q61 0 61 84zM368 665q-45 -124 -99 -124q-37 0 -73.5 39t-49.5 39q-20 0 -37 -29
q-10 -23 -21 -46h-58q38 123 116 123q35 0 71 -39t52 -39q19 0 46 76h53z" />
    <glyph glyph-name="odieresis" unicode="&#xf6;" horiz-adv-x="378" 
d="M340 140q0 -62 -44 -106t-106 -44h-26q-62 0 -106 44t-44 106v182q0 62 44 106t106 44h26q62 0 106 -44t44 -106v-182zM240 167v132q0 84 -65 84q-61 0 -61 -84v-132q0 -84 65 -84q61 0 61 84zM354 546h-104v111l104 -1v-110zM124 546h-104v111l104 -1v-110z" />
    <glyph glyph-name="divide" unicode="&#xf7;" horiz-adv-x="399" 
d="M259 390h-104v111l104 -1v-110zM401 210h-392v82h392v-82zM259 0h-104v111l104 -1v-110z" />
    <glyph glyph-name="oslash" unicode="&#xf8;" horiz-adv-x="382" 
d="M352 140q0 -71 -50 -112q-46 -39 -116 -39q-14 0 -29 2l-21 -59h-94l34 97q-50 44 -50 111v182q0 62 44.5 106t105.5 44h26q14 0 28 -2l29 83l93 -1l-43 -125q43 -43 43 -105v-182zM199 382q-5 1 -12 1q-61 0 -61 -84v-126zM252 167v98l-63 -182h2q38 0 52 25q9 18 9 59z
" />
    <glyph glyph-name="ugrave" unicode="&#xf9;" horiz-adv-x="379" 
d="M353 -1l-104 1l1 25q-23 -28 -86 -28q-62 0 -101 44t-39 106l1 332h98l1 -309q0 -84 65 -84q59 0 59 57l-1 336h105zM281 543h-84l-169 132l124 1z" />
    <glyph glyph-name="uacute" unicode="&#xfa;" horiz-adv-x="372" 
d="M344 -1l-104 1l1 25q-23 -28 -86 -28q-62 0 -101 44t-39 106l1 332h98l1 -309q0 -84 65 -84q59 0 59 57l-1 336h105zM347 675l-169 -132h-84l129 133z" />
    <glyph glyph-name="ucircumflex" unicode="&#xfb;" horiz-adv-x="382" 
d="M353 -1l-104 1l1 25q-23 -28 -86 -28q-62 0 -101 44t-39 106l1 332h98l1 -309q0 -84 65 -84q59 0 59 57l-1 336h105zM338 534h-71l-69 150l-70 -150h-71l105 218l73 -1z" />
    <glyph glyph-name="udieresis" unicode="&#xfc;" horiz-adv-x="391" 
d="M361 -1l-104 1l1 25q-23 -28 -86 -28q-62 0 -101 44t-39 106l1 332h98l1 -309q0 -84 65 -84q59 0 59 57l-1 336h105zM356 546h-104v111l104 -1v-110zM126 546h-104v111l104 -1v-110z" />
    <glyph glyph-name="yacute" unicode="&#xfd;" horiz-adv-x="376" 
d="M349 479l-158 -679l-87 1l41 199l-129 479h104l70 -324l55 324h104zM386 675l-169 -132h-84l129 133z" />
    <glyph glyph-name="thorn" unicode="&#xfe;" horiz-adv-x="378" 
d="M354 144q0 -62 -44 -106t-106 -44h-26q-27 0 -50 28l1 -205l-104 -1v836l99 1l1 -212q22 35 79 35q62 0 106 -44t44 -106v-182zM254 167v132q0 84 -61 84q-49 0 -61 -43q-4 -14 -4 -81v-42q0 -74 3 -86q10 -48 58 -48q65 0 65 84z" />
    <glyph glyph-name="ydieresis" unicode="&#xff;" horiz-adv-x="378" 
d="M345 479l-158 -679l-87 1l41 199l-129 479h104l70 -324l55 324h104zM354 546h-104v111l104 -1v-110zM124 546h-104v111l104 -1v-110z" />
    <glyph glyph-name="dotlessi" unicode="&#x131;" horiz-adv-x="169" 
d="M136 0h-104l-1 480h104z" />
    <glyph glyph-name="Scaron" unicode="&#x160;" horiz-adv-x="375" 
d="M354 469h-100q0 47 -9 70q-15 34 -56 34q-37 0 -51 -26q-10 -19 -10 -60q0 -55 8 -80q14 -44 57 -44q62 0 111 -43.5t49 -105.5v-82q0 -62 -44 -106t-106 -44h-26q-62 0 -106 44t-44 106v43h100q-1 -104 65 -104q38 0 52 28q9 18 9 62q0 110 -63.5 110t-112.5 43.5
t-49 105.5v92q0 62 44 106t106 44h26q62 0 106 -44t44 -106v-43zM310 912l-103 -217l-73 -1l-105 218h71l70 -150l69 150h71z" />
    <glyph glyph-name="scaron" unicode="&#x161;" horiz-adv-x="353" 
d="M337 137q0 -62 -44 -106t-106 -44h-26q-56 0 -98.5 37t-50.5 93h105q14 -41 59 -41q24 0 42.5 16.5t18.5 39.5q0 54 -75 54q-64 0 -107 36q-46 38 -46 100t44 106t106 44h26q56 0 99 -37.5t50 -93.5h-105q-13 42 -59 42q-25 0 -43 -15.5t-18 -40.5q0 -54 75 -54
q64 0 108.5 -37t44.5 -99zM299 748l-103 -217l-73 -1l-105 218h71l70 -150l69 150h71z" />
    <glyph glyph-name="Ydieresis" unicode="&#x178;" horiz-adv-x="354" 
d="M343 649l-118 -455q-3 -10 -3 -51q0 -27 1.5 -79.5t1.5 -63.5h-104l-1 150v42l-110 457h104l61 -290l64 290h104zM352 710h-104v111l104 -1v-110zM122 710h-104v111l104 -1v-110z" />
    <glyph glyph-name="Zcaron" unicode="&#x17d;" horiz-adv-x="349" 
d="M326 0h-305l-1 83l204 484h-203l-1 83h305l1 -83l-203 -484h202zM325 912l-103 -217l-73 -1l-105 218h71l70 -150l69 150h71z" />
    <glyph glyph-name="zcaron" unicode="&#x17e;" horiz-adv-x="357" 
d="M337 0h-305l-1 83l194 314h-193l-1 83h305l1 -83l-193 -314h192zM308 748l-103 -217l-73 -1l-105 218h71l70 -150l69 150h71z" />
    <glyph glyph-name="florin" unicode="&#x192;" horiz-adv-x="462" 
d="M459 664l-27 -98q-72 1 -100 -109h72l-24 -88h-72l-75 -279l-12 -48q-15 -53 -80 -103t-120 -50q-7 0 -13 1l27 98q45 0 69 30q17 22 31 72l74 278h-51l25 89h49l15 55q16 61 83 107q64 45 129 45z" />
    <glyph glyph-name="circumflex" unicode="&#x2c6;" horiz-adv-x="231" 
d="M248 698h-71l-69 150l-70 -150h-71l105 218l73 -1z" />
    <glyph glyph-name="caron" unicode="&#x2c7;" horiz-adv-x="250" 
d="M268 912l-103 -217l-73 -1l-105 218h71l70 -150l69 150h71z" />
    <glyph glyph-name="breve" unicode="&#x2d8;" horiz-adv-x="289" 
d="M310 830q0 -46 -45.5 -80.5t-93.5 -34.5q-49 0 -92 32q-46 35 -46 82q0 22 16 22q4 0 9 -2q8 -38 40 -60t73 -22t72.5 22t40.5 60q5 2 10 2q16 0 16 -21z" />
    <glyph glyph-name="dotaccent" unicode="&#x2d9;" horiz-adv-x="123" 
d="M132 710h-104v111l104 -1v-110z" />
    <glyph glyph-name="ring" unicode="&#x2da;" horiz-adv-x="88" 
d="M94 768q0 -51 -33.5 -77.5t-85.5 -26.5q-43 0 -73 30.5t-30 73.5v60q0 51 35 79q33 25 85 25q42 0 72 -30.5t30 -73.5v-60zM19 786v27q0 51 -37 51q-35 0 -35 -51v-27q0 -51 37 -51q35 0 35 51z" />
    <glyph glyph-name="ogonek" unicode="&#x2db;" horiz-adv-x="206" 
d="M195 -167q0 -13 -36 -33.5t-51 -20.5q-36 0 -59.5 21t-23.5 57q0 42 33 82q19 22 68 61h38q-38 -35 -50 -51q-25 -33 -25 -65q0 -58 41 -58q10 0 28 5.5t28 5.5q9 0 9 -4z" />
    <glyph glyph-name="tilde" unicode="&#x2dc;" horiz-adv-x="279" 
d="M299 829q-45 -124 -99 -124q-37 0 -73.5 39t-49.5 39q-20 0 -37 -29q-10 -23 -21 -46h-58q38 123 116 123q35 0 71 -39t52 -39q19 0 46 76h53z" />
    <glyph glyph-name="hungarumlaut" unicode="&#x2dd;" horiz-adv-x="312" 
d="M335 866l-130 -190h-84l120 191zM215 866l-130 -190h-84l120 191z" />
    <glyph glyph-name="endash" unicode="&#x2013;" horiz-adv-x="379" 
d="M343 300l-311 1v62l311 -1v-62z" />
    <glyph glyph-name="emdash" unicode="&#x2014;" horiz-adv-x="552" 
d="M517 299h-485v52h485v-52z" />
    <glyph glyph-name="quoteleft" unicode="&#x2018;" horiz-adv-x="198" 
d="M170 649l-80 -260h-74l40 261z" />
    <glyph glyph-name="quoteright" unicode="&#x2019;" horiz-adv-x="199" 
d="M171 649l-80 -260h-74l40 261z" />
    <glyph glyph-name="quotesinglbase" unicode="&#x201a;" horiz-adv-x="213" 
d="M180 110l-80 -260h-74l40 261z" />
    <glyph glyph-name="quotedblleft" unicode="&#x201c;" horiz-adv-x="339" 
d="M311 649l-79 -260h-74l39 261zM171 649l-79 -260h-74l39 261z" />
    <glyph glyph-name="quotedblright" unicode="&#x201d;" horiz-adv-x="339" 
d="M311 649l-79 -260h-74l39 261zM171 649l-79 -260h-74l39 261z" />
    <glyph glyph-name="quotedblbase" unicode="&#x201e;" horiz-adv-x="347" 
d="M314 110l-80 -260h-74l40 261zM174 110l-80 -260h-74l40 261z" />
    <glyph glyph-name="dagger" unicode="&#x2020;" horiz-adv-x="303" 
d="M283 493h-103l1 -296l-70 1v295h-89l-1 59h90l-1 118h70v-119h103v-58z" />
    <glyph glyph-name="daggerdbl" unicode="&#x2021;" horiz-adv-x="309" 
d="M285 493h-102v-120h99l1 -59h-100l1 -118h-70v2h-1v117h-92v58h93v120h-90l-1 59h91l-2 118l71 -2v-117h102v-58z" />
    <glyph glyph-name="bullet" unicode="&#x2022;" horiz-adv-x="345" 
d="M309 121h-270v288l269 -3z" />
    <glyph glyph-name="ellipsis" unicode="&#x2026;" horiz-adv-x="601" 
d="M560 0h-104l-1 111l104 -1zM352 0h-104l-1 111l104 -1zM138 0h-104v111l104 -1v-110z" />
    <glyph glyph-name="perthousand" unicode="&#x2030;" horiz-adv-x="812" 
d="M814 104q0 -51 -36 -79q-32 -25 -84 -25q-42 0 -72.5 31t-30.5 73v121q0 50 36 78q32 26 84 26q42 0 72.5 -31t30.5 -73v-121zM739 122v87q0 51 -38 51q-35 0 -35 -51v-87q0 -51 38 -51q35 0 35 51zM232 428q0 -51 -33.5 -77.5t-85.5 -26.5q-43 0 -73 30.5t-30 73.5v120
q0 51 35 79q32 25 85 25q42 0 72 -30.5t30 -73.5v-120zM157 446v87q0 51 -37 51q-35 0 -35 -51v-87q0 -51 37 -51q35 0 35 51zM551 104q0 -51 -36 -79q-32 -25 -84 -25q-42 0 -72.5 31t-30.5 73v121q0 50 36 78q32 26 84 26q42 0 72.5 -31t30.5 -73v-121zM476 122v87
q0 51 -38 51q-35 0 -35 -51v-87q0 -51 38 -51q35 0 35 51zM494 649l-346 -649h-94l346 650z" />
    <glyph glyph-name="guilsinglleft" unicode="&#x2039;" horiz-adv-x="275" 
d="M248 77q0 -9 -14.5 -19.5t-24.5 -10.5q-5 0 -10 2q-178 244 -178 247q0 9 10 18q15 14 15 15l153 212q5 2 10 2q10 0 24.5 -10.5t14.5 -19.5q0 -10 -9 -22q-14 -18 -16 -21l-89 -175l89 -175q2 -3 16 -21q9 -12 9 -22z" />
    <glyph glyph-name="guilsinglright" unicode="&#x203a;" horiz-adv-x="276" 
d="M249 296q0 -3 -178 -247q-5 -2 -10 -2q-10 0 -24.5 10.5t-14.5 19.5q0 10 10 22q13 18 15 21l89 175l-89 175q-2 3 -15 21q-10 12 -10 22q0 9 14.5 19.5t24.5 10.5q5 0 10 -2l153 -212q0 -1 15 -15q10 -9 10 -18z" />
    <glyph glyph-name="euro" unicode="&#x20ac;" horiz-adv-x="417" 
d="M392 140q0 -62 -44 -106t-106 -44h-26q-62 0 -106 44t-44 106v47h-37l-1 92h38v58h-41l-1 92h42v83q0 62 44 106t106 44h26q62 0 106 -44t44 -106v-103h-100q0 9 1 29t1 31q0 104 -67 104q-63 0 -63 -90q0 -9 1 -27t1 -27h82v-92h-82v-58h46v-92h-46v-20q0 -84 65 -84
q61 0 61 84v87h100v-114z" />
    <glyph glyph-name="trademark" unicode="&#x2122;" horiz-adv-x="541" 
d="M506 279h-67v150l-41 -150h-65l-37 150v-150h-67v366h70l69 -240l66 240h72v-366zM203 591h-56l1 -312h-68v312h-55v55h178v-55z" />
    <glyph glyph-name="fi" unicode="&#xf001;" horiz-adv-x="431" 
d="M397 649l-1 -109l-103 -1v111zM398 0h-104l-1 480h104zM246 369h-73v-369h-98l-1 368h-50l1 89h49v55q0 62 54 107t118 45l-1 -98q-45 1 -61 -35q-11 -23 -10 -74h72v-88z" />
    <glyph glyph-name="fl" unicode="&#xf002;" horiz-adv-x="452" 
d="M415 649l-1 -649h-104l1 650zM252 369h-72l-1 -369h-98v368h-51l1 89h50l-1 55q0 62 56 108q52 44 116 44l-1 -98q-44 1 -60 -35q-11 -23 -11 -74h72v-88z" />
    </font>
</defs>
</svg>
